<?xml version="1.0"?>
<svg xmlns="http://www.w3.org/2000/svg" id="Layer_1" enable-background="new 121 -320 1201 1201" height="512px" viewBox="121 -320 1201 1201" width="512px"><g><path id="XMLID_755_" d="m366.2 61c45.8-68.1 111.1-122.7 186.4-155.1-15.1-31.7-47.2-49-81.5-50.3-67.9-2.4-132.3 46.4-164.1 103.7-28.6 51.5-35.1 130.1 25.4 162 9.7-21 21-41.2 33.8-60.3z" data-original="#000000" class="active-path" data-old_color="#000000" fill="#2D589A"/><path id="XMLID_757_" d="m1156.4 23.3c-6.8-65.6-56.3-124.7-114.8-152.1-51.4-24-123.9-23.6-151.7 34.7 21.3 9.1 41.8 20 61.3 32.5 68.9 44.2 124.9 108.3 158.9 182.8 7.6-4 14.6-9.1 20.6-15.2 21.6-21.6 28.7-52.9 25.7-82.7z" data-original="#000000" class="active-path" data-old_color="#000000" fill="#2D589A"/><path id="XMLID_759_" d="m1130.6 106.1c-6.2 6.1 45-45 0 0z" data-original="#000000" class="active-path" data-old_color="#000000" fill="#2D589A"/><path id="XMLID_1131_" d="m979.7 638.5c-23.3 17.8-48.5 33.2-75 45.8 5.5 9.6 11 19.1 16.6 28.7 13.3 23.1 25.5 47.5 40.2 69.7 9.8 14.8 26.6.6 37.2-5.5 11.3-6.5 22.5-13 33.8-19.5 10.7-6.2 6.3-16.7 1.6-24.8-18.1-31.6-36.3-63-54.4-94.4z" data-original="#000000" class="active-path" data-old_color="#000000" fill="#2D589A"/><path id="XMLID_1134_" d="m425.9 702.4c-5.9 10.2-11.8 20.5-17.7 30.7-4.9 8.5-8.3 17.9 2.1 24.7 9.5 6.2 19.8 11.5 29.7 17.1 5.6 3.2 11.2 6.4 16.7 9.7 3.7 2.1 7.4 4.8 11.9 5 10.2.3 14.1-9.7 18.3-17.1 6.5-11.3 13.1-22.7 19.6-34 10.4-18.1 20.8-36.1 31.3-54.2-26.5-12.6-51.7-28-75-45.8-12.3 21.3-24.6 42.6-36.9 63.9z" data-original="#000000" class="active-path" data-old_color="#000000" fill="#2D589A"/><path id="XMLID_1135_" d="m1125.1 293.4c.1 1.7 0-1.2 0 0z" data-original="#000000" class="active-path" data-old_color="#000000" fill="#2D589A"/><path id="XMLID_1139_" d="m989.1-3.9c-41.7-37-90.9-65.3-144-82.3-24.4-7.8-49.4-13.2-74.8-16.3-6.2-.8-12.4-1.4-18.7-1.8-2.7-.2-6.4.5-7.4-1.5-.7-1.3 0-4.7 0-6.1 0-4.2 0-8.4 0-12.6 0-17.6 0-35.3 0-52.9 0-4.4-1.1-4.9 3.4-4.9h25.9c6.6 0 13.7.7 20.2-.3 13.7-2.1 22.6-16.5 18.4-29.7-5.2-16.5-20.7-16.1-34.6-16.1-35.6 0-71.2 0-106.8 0-11.3 0-25.2-2.2-34.2 6.2-10.1 9.4-9.5 26.2 1.3 34.9 6.9 5.5 14.9 5.1 23.1 5.1h27.6c1.8 0 7.5-1 9 0 1.1.7.2 0 .7 1.7 1.7 5.3 0 13.6 0 19.2v29.9 22.5c0 .7.5 3.6 0 4.2-1.4 1.8-12.9 1-15.5 1.3-24.9 2.3-49.5 7-73.6 13.9-112.6 31.9-207.7 114.7-256.1 221.3-48.8 107.7-47.4 235.3 3.9 341.9 48.3 100.3 138.7 178.5 245.2 211.1 100.2 30.6 210.9 21.1 304-26.9 105-54.1 183.1-154.5 209-269.8 7-31 10.3-62.8 9.8-94.5-.8-113.3-51.2-222.5-135.8-297.5zm80.2 369c-13.6 71.1-49.4 137-101.2 187.4-52.2 50.7-119.6 84.7-191.5 96-18.3 2.9-36.8 4.3-55.3 4.3-73.9 0-146.7-23.5-206.7-66.7-58.5-42.1-103.6-101.9-127.6-169.9-23.5-66.6-26.5-140-8.4-208.3 18.5-69.5 58.4-132.6 113.2-179.2 54.4-46.3 122.2-75.4 193.2-82.7 72.8-7.4 147 8.1 210.7 44.2 66.4 37.7 119.9 97.1 150.5 167.1 28.3 65 36.4 138.1 23.1 207.8z" data-original="#000000" class="active-path" data-old_color="#000000" fill="#2D589A"/><path id="XMLID_1140_" d="m988.9 453s0 .1 0 0c0 .1 0 .1 0 0z" data-original="#000000" class="active-path" data-old_color="#000000" fill="#2D589A"/><path id="XMLID_1144_" d="m999.3 118.6c-41.3-63.6-104.2-112.1-176.4-135.4-75.2-24.3-158.3-20.6-231 10.3-69.6 29.6-127.9 83.2-163.4 149.9-34.4 64.6-46.2 140-33.7 212 10.3 59.3 37.1 115.2 76.7 160.5 39.4 45.2 90.9 79.4 147.9 97.8 59.1 19.2 123.4 21.2 183.6 5.9 58.3-14.9 111.9-45.9 154.1-88.7 42-42.7 72.2-96.5 86.2-154.8 16.6-69.1 10.4-143.2-17.8-208.5-7.3-17-16.1-33.4-26.2-49zm-286.1-75.7c0-5.3 0-10.7 0-16 0-9.8 0-19.6 0-29.4 0-9.1 13-10.8 15.7-2.4.8 2.6.4 5.9.4 8.6v34.2c0 3.1.3 6.3 0 9.4-.7 7.1-9.1 11.5-14.3 5.3-2.3-2.8-1.8-6.3-1.8-9.7zm-146.6-12.1c-.9.6-1.8 1.1 0 0 1.9-1.1 1.1-.6.1-.1 9.3-5.3 14.8 9.6 18.2 15.5 5.4 9.3 10.8 18.7 16.2 28 2 3.5 3.9 7 1.4 11-3.8 6.2-11 4-14.3-1.1-5.4-8.2-9.9-17.2-14.8-25.7-3.6-6-16.7-21.7-6.8-27.6zm-113.9 115.4c1.5-6.3 7.8-7.2 12.7-4.7 8.8 4.4 17.2 9.9 25.7 14.8 6.1 3.5 25.4 10.6 19.7 20.7.5-.9 1.3-2.3 0 0-.6 1-.4.6 0 0-5.5 9.4-18.6-1.5-24.6-4.9-9.2-5.3-18.5-10.5-27.6-15.9-3.7-2.2-7.1-5-5.9-10zm-40.6 152.3c0-10.8 15.7-8.1 22.6-8.1 10.9 0 21.8-.1 32.7 0 4.2.1 8.3.4 10.3 4.9 2.6 6.3-2.6 10.8-8.3 11.2-9.8.7-20 0-29.8 0-7.2.1-27.5 3.6-27.5-8zm95.7 132.5c-7 4.1-14.1 8.1-21.1 12.2-7.2 4.2-14.5 9.4-22.2 12.8-7.9 3.5-16.4-5.4-10-12.4 1.8-2 4.9-3.3 7.2-4.6 9.7-5.6 19.5-11.2 29.2-16.9 2.8-1.6 5.7-3.7 8.7-5 9.4-4.2 17.5 8.6 8.2 13.9zm94.9 88.9c-4.1 7-8.1 14.1-12.2 21.1-4.2 7.3-7.9 15.4-12.8 22.2-5 7-16.8 3.5-14.8-5.8.6-2.7 2.6-5.3 4-7.6 5.6-9.7 11.2-19.5 16.9-29.2 1.6-2.8 3.1-6 5-8.7 5.8-8.2 19.2-1.2 13.9 8zm126.6 34.2v16 29.4c0 9.1-13 10.9-15.7 2.4-.8-2.6-.4-5.9-.4-8.6 0-11.4 0-22.8 0-34.2 0-3.1-.3-6.3 0-9.4.7-7.1 9.1-11.5 14.3-5.3 2.2 2.8 1.8 6.4 1.8 9.7zm25.8-213.5c-9.6 7.7-21.6 12-33.9 12-4.4 0-8.8-.5-13.1-1.6-1.5-.4-5-2.2-6.2-1.9-.7.2-1.5 1.5-2.1 2-4.2 3.3-7.9 7.6-11.7 11.3-12.8 12.4-25.5 24.7-38.3 37.1-9.9 9.6-19.8 19.2-29.8 28.8-4.9 4.7-10.1 8.2-17.2 8.5-14.1.6-25.6-12-23.8-25.9 1.4-11.4 12.9-19.6 20.7-27 12.8-12.4 25.5-24.7 38.3-37.1 9.7-9.4 21.1-18.4 29.8-28.8.5-.5 1.8-1.3 2-2 .2-.8-.9-3.2-1.1-4.3-1.2-4.7-1.7-9.6-1.6-14.4.1-7.4 1.8-14.8 4.9-21.5 1-2.1 3.1-4.1 2.4-6-.9-2.2-5.1-4.8-6.7-6.4-4.3-4.1-8.6-8.2-12.9-12.2-12.3-11.7-24.6-23.4-37-35.2-22.5-21.4-45.1-42.9-67.6-64.3-1.7-1.6-3.6-3.2-5.2-4.9-7.3-8-1.9-22 9.9-19.8 6.8 1.3 13.6 10.4 18.3 14.8 24.6 23.4 49.1 46.7 73.7 70.1 10.9 10.3 21.7 20.7 32.6 31 2.9 2.8 5.8 6.4 9.2 8.7.5.4 1.3 1.7 2 1.9 1.6.4 9.4-4.9 11.4-5.6 25.4-9.7 54.8 1.7 67.3 25.8 11.6 22.5 5.5 51-14.3 66.9zm120.7 225.6c.7-.4 2.9-1.7 0 0-.3.2-.3.1 0 0-9.5 5.5-15.4-10.5-18.9-16.5-5.3-9.2-10.7-18.3-15.9-27.6-2.1-3.8-3.7-7.9-.2-11.7 4.4-4.7 10.3-2.4 13.4 2.3 5.4 8.2 9.9 17.2 14.8 25.7 3.6 6.2 16.8 22 6.8 27.8zm2.9-524.4c-4.1 7-8.1 14.1-12.2 21.1-4.2 7.3-7.9 15.4-12.8 22.2-5.1 7-16.9 3.5-14.8-5.8.6-2.7 2.6-5.3 4-7.6 5.6-9.7 11.2-19.5 16.9-29.2 1.6-2.8 3.1-6 5-8.7 5.9-8.2 19.2-1.2 13.9 8zm55.9 124.2c14.2-8.2 28.3-18.2 43.3-25 7-3.2 15.5 3.7 10.9 11.2-1.6 2.6-4.9 4-7.4 5.5-9.7 5.6-19.3 11.2-29 16.7-3.1 1.8-6.2 4.1-9.5 5.5-9.5 4-17.6-8.5-8.3-13.9zm54.3 287c-.6 1.1-.4.7 0 0-5.5 9.5-18.6-1.4-24.6-4.9-9.2-5.3-18.5-10.5-27.6-15.9-3.7-2.2-7.1-5-6-10 1.5-6.3 7.8-7.2 12.7-4.7 8.8 4.4 17.2 9.9 25.7 14.8 6.3 3.6 25.6 10.7 19.8 20.7.6-.9 1.3-2.2 0 0zm33.3-146.4c-16.4 0-33.6 1.6-50 0-8.1-.8-11.5-12-3.2-15.5 2.6-1.1 6.2-.6 8.9-.6h34.1c3.3 0 6.7-.3 10 0 10.3.9 10.9 16.1.2 16.1z" data-original="#000000" class="active-path" data-old_color="#000000" fill="#2D589A"/><path id="XMLID_1164_" d="m999.3 118.6c33.6 51.8-26.6-41 0 0z" data-original="#000000" class="active-path" data-old_color="#000000" fill="#2D589A"/><path id="XMLID_1165_" d="" data-original="#000000" class="active-path" data-old_color="#000000" fill="#2D589A"/><path id="XMLID_1167_" d="m566.7 30.8c-.1 0-.1 0 0 0z" data-original="#000000" class="active-path" data-old_color="#000000" fill="#2D589A"/><path id="XMLID_1168_" d="" data-original="#000000" class="active-path" data-old_color="#000000" fill="#2D589A"/><path id="XMLID_1169_" d="m723 267.5c-19.3-1.1-35.2 16.3-32.5 35.4 2.2 15.5 16.1 27.2 31.8 26.7 16.5-.6 30.1-14.5 30.1-31.1-.1-16.3-13.2-30.1-29.4-31z" data-original="#000000" class="active-path" data-old_color="#000000" fill="#2D589A"/></g> </svg>
