<svg xmlns="http://www.w3.org/2000/svg" width="15.563" height="15.563" viewBox="0 0 15.563 15.563">
  <defs>
    <style>
      .cls-1 {
        fill: #2d589a;
        fill-rule: evenodd;
        opacity: 0.9;
      }
    </style>
  </defs>
  <path id="cart" class="cls-1" d="M915.665,983.853a1.555,1.555,0,1,0,1.555,1.555A1.56,1.56,0,0,0,915.665,983.853ZM911,971.412v1.556h1.555l2.8,5.909-1.088,1.866a2.751,2.751,0,0,0-.156.777,1.559,1.559,0,0,0,1.555,1.555H925V981.52h-9.02a0.166,0.166,0,0,1-.155-0.155v-0.078l0.7-1.322h5.754a1.419,1.419,0,0,0,1.322-.777l2.8-5.054a0.429,0.429,0,0,0,.156-0.389,0.735,0.735,0,0,0-.778-0.777H914.266l-0.7-1.556H911Zm12.441,12.441A1.555,1.555,0,1,0,925,985.408,1.56,1.56,0,0,0,923.441,983.853Z" transform="translate(-911 -971.406)"/>
</svg>
