<?xml version="1.0"?>
<svg xmlns="http://www.w3.org/2000/svg" id="Capa_1" enable-background="new 0 0 512 512" height="512px" viewBox="0 0 512 512" width="512px" class=""><g><path d="m492.06 95.64c3.677-3.677 5.186-8.994 3.999-14.048-1.201-5.068-4.937-9.141-9.858-10.781l-95.464-31.816c-5.405-1.831-11.353-.396-15.352 3.618-4.014 4.014-5.42 9.961-3.618 15.352l31.816 95.464c1.641 4.922 5.713 8.657 10.781 9.858 5.27 1.216 10.505-.456 14.048-3.999l19.876-19.876c21.046 34.906 33.712 75.32 33.712 116.588 0 124.072-101.928 226-226 226-8.291 0-15 6.709-15 15s6.709 15 15 15c140.61 0 256-115.39 256-256 0-49.277-15.507-97.301-41.931-138.369z" data-original="#000000" class="active-path" data-old_color="#000000" fill="#2D589A"/><path d="m15.385 412.313c-3.677 3.677-5.186 8.994-3.999 14.048 1.201 5.068 4.937 9.141 9.858 10.781l95.464 31.816c5.288 1.796 11.292.439 15.352-3.618 4.014-4.014 5.42-9.961 3.618-15.352l-31.831-95.449c-1.641-4.937-5.713-8.657-10.781-9.858-5.068-1.187-10.386.337-14.048 3.999l-18.151 18.151c-19.223-33.745-30.867-71.524-30.867-110.831 0-124.072 101.928-226 226-226 8.291 0 15-6.709 15-15s-6.709-15-15-15c-140.61 0-256 115.39-256 256 0 47.311 14.467 92.743 38.963 132.735z" data-original="#000000" class="active-path" data-old_color="#000000" fill="#2D589A"/><path d="m286 60c-25.891 0-48.75 13.195-62.234 33.208 10.433-2.075 21.2-3.208 32.234-3.208 39.498 0 75.776 13.982 104.213 37.214-3.959-37.655-35.526-67.214-74.213-67.214z" data-original="#000000" class="active-path" data-old_color="#000000" fill="#2D589A"/><circle cx="346" cy="346" r="45" data-original="#000000" class="active-path" data-old_color="#000000" fill="#2D589A"/><circle cx="151" cy="331" r="30" data-original="#000000" class="active-path" data-old_color="#000000" fill="#2D589A"/><circle cx="151" cy="150" r="30" data-original="#000000" class="active-path" data-old_color="#000000" fill="#2D589A"/><path d="m256 120c-17.28 0-33.666 3.547-48.853 9.463 2.363 6.434 3.853 13.292 3.853 20.537 0 33.091-26.909 60-60 60-7.245 0-14.103-1.49-20.537-3.853-5.916 15.187-9.463 32.573-9.463 49.853 0 7.581 1.031 14.892 2.232 22.132 8.342-4.402 17.695-7.132 27.768-7.132 33.091 0 60 26.909 60 60 0 17.065-7.238 32.397-18.71 43.332 19.058 10.289 40.534 16.668 63.71 16.668 9.586 0 18.911-1.068 27.933-2.968-8.154-11.999-12.933-26.464-12.933-42.032 0-41.353 33.647-75 75-75 15.568 0 30.033 4.779 42.032 12.933 1.9-9.022 2.968-18.347 2.968-27.933 0-74.559-60.441-136-135-136z" data-original="#000000" class="active-path" data-old_color="#000000" fill="#2D589A"/></g> </svg>
