<svg xmlns="http://www.w3.org/2000/svg" width="15.41" height="11.062" viewBox="0 0 15.41 11.062">
  <defs>
    <style>
      .cls-1 {
        fill: #3e6891;
        fill-rule: evenodd;
      }
    </style>
  </defs>
  <path id="icon" class="cls-1" d="M1023.47,780.885V780.68l-1.7-5.647h-3.76v-1.351h-9.04v7.2h-0.44v1.853h0.44v0.275h0.29a2.054,2.054,0,0,0,4.06,0h4.64a2.054,2.054,0,0,0,4.06,0h1.45v-0.275h0.48v-1.853h-0.48Zm-12.18,2.886a1.106,1.106,0,1,1,1.1-1.106A1.1,1.1,0,0,1,1011.29,783.771Zm8.7,0a1.106,1.106,0,1,1,1.09-1.106A1.1,1.1,0,0,1,1019.99,783.771Zm-1.01-5.254v-2.5h2.07l0.75,2.5h-2.82Z" transform="translate(-1008.53 -773.688)"/>
</svg>
